HIERARCHY
ROOT Hips
{
	OFFSET 0.000000 0.000000 0.000000
	CHANNELS 6 Xposition Yposition Zposition Zrotation Yrotation Xrotation 
	JOINT LeftUpLeg_virtual
	{
		OFFSET 0.000000 0.000000 0.000000
		CHANNELS 3 Zrotation Yrotation Xrotation
		JOINT LeftUpLeg
		{
			OFFSET 8.479694 -4.795517 -0.379053
			CHANNELS 3 Zrotation Yrotation Xrotation
			JOINT LeftLeg
			{
				OFFSET 0.485052 -32.551468 0.112863
				CHANNELS 3 Zrotation Yrotation Xrotation
				JOINT LeftFoot
				{
					OFFSET 0.438033 -32.635670 -3.012641
					CHANNELS 3 Zrotation Yrotation Xrotation
					JOINT LeftToeBase
					{
						OFFSET 0.970169 -13.225353 11.864223
						CHANNELS 3 Zrotation Yrotation Xrotation
						End Site
						{
							OFFSET 0.000000 0.000000 0.000000
						}
					}
				}
			}
		}
	}
	JOINT RightUpLeg_virtual
	{
		OFFSET 0.000000 0.000000 0.000000
		CHANNELS 3 Zrotation Yrotation Xrotation
		JOINT RightUpLeg
		{
			OFFSET -8.479694 -4.795517 -0.379053
			CHANNELS 3 Zrotation Yrotation Xrotation
			JOINT RightLeg
			{
				OFFSET -0.484100 -32.551483 0.112903
				CHANNELS 3 Zrotation Yrotation Xrotation
				JOINT RightFoot
				{
					OFFSET -0.438985 -32.635651 -3.012681
					CHANNELS 3 Zrotation Yrotation Xrotation
					JOINT RightToeBase
					{
						OFFSET -0.970169 -13.225354 11.864223
						CHANNELS 3 Zrotation Yrotation Xrotation
						End Site
						{
							OFFSET 0.000000 0.000000 0.000000
						}
					}
				}
			}
		}
	}
	JOINT Spine_virtual
	{
		OFFSET 0.000000 0.000000 0.000000
		CHANNELS 3 Zrotation Yrotation Xrotation
		JOINT Spine
		{
			OFFSET 0.000000 7.722015 1.166203
			CHANNELS 3 Zrotation Yrotation Xrotation
			JOINT Spine1
			{
				OFFSET 0.000000 12.024086 0.248766
				CHANNELS 3 Zrotation Yrotation Xrotation
				JOINT Spine2
				{
					OFFSET -0.000000 11.503036 -0.491240
					CHANNELS 3 Zrotation Yrotation Xrotation
					JOINT Neck_virtual
					{
						OFFSET 0.000000 0.000000 0.000000
						CHANNELS 3 Zrotation Yrotation Xrotation
						JOINT Neck
						{
							OFFSET 0.000000 18.430687 -3.123054
							CHANNELS 3 Zrotation Yrotation Xrotation
							JOINT Head
							{
								OFFSET -0.000000 9.051071 1.034021
								CHANNELS 3 Zrotation Yrotation Xrotation
								End Site
								{
									OFFSET 0.000000 0.000000 0.000000
								}
							}
						}
					}
					JOINT LeftShoulder_virtual
					{
						OFFSET 0.000000 0.000000 0.000000
						CHANNELS 3 Zrotation Yrotation Xrotation
						JOINT LeftShoulder
						{
							OFFSET 6.197824 13.665230 -4.064723
							CHANNELS 3 Zrotation Yrotation Xrotation
							JOINT LeftArm
							{
								OFFSET 7.778132 -0.187073 -1.709282
								CHANNELS 3 Zrotation Yrotation Xrotation
								JOINT LeftForeArm
								{
									OFFSET 21.954697 0.000000 -2.041093
									CHANNELS 3 Zrotation Yrotation Xrotation
									JOINT LeftHand
									{
										OFFSET 22.992908 0.000000 -0.870901
										CHANNELS 3 Zrotation Yrotation Xrotation
										End Site
										{
											OFFSET 0.000000 0.000000 0.000000
										}
									}
								}
							}
						}
					}
					JOINT RightShoulder_virtual
					{
						OFFSET 0.000000 0.000000 0.000000
						CHANNELS 3 Zrotation Yrotation Xrotation
						JOINT RightShoulder
						{
							OFFSET -6.197824 13.665230 -4.064723
							CHANNELS 3 Zrotation Yrotation Xrotation
							JOINT RightArm
							{
								OFFSET -7.778132 -0.187073 -1.709282
								CHANNELS 3 Zrotation Yrotation Xrotation
								JOINT RightForeArm
								{
									OFFSET -21.954697 0.000000 -2.041093
									CHANNELS 3 Zrotation Yrotation Xrotation
									JOINT RightHand
									{
										OFFSET -22.992908 0.000000 -0.870901
										CHANNELS 3 Zrotation Yrotation Xrotation
										End Site
										{
											OFFSET 0.000000 0.000000 0.000000
										}
									}
								}
							}
						}
					}
				}
			}
		}
	}
}
MOTION
Frames: 9
Frame Time: 0.033333
-55.160866 81.734329 34.328274 179.914122 15.465302 -179.965554 -3.632130 -1.271345 8.748787 2.363580 3.125691 -24.300563 6.254514 0.612170 32.651084 -2.790311 -9.940286 -11.435974 0.000000 0.000000 0.000000 -0.510270 -1.238977 8.136859 1.137449 2.225058 -20.527666 -1.210195 3.097649 29.871638 7.745302 6.530282 -5.519151 0.000000 0.000000 0.000000 1.683885 2.214008 -4.377044 0.623619 -2.318633 -6.092140 -1.735789 -1.524610 8.626625 -0.009646 0.102093 0.005178 -2.250584 0.145561 9.446289 -7.688514 -0.763451 -3.540810 0.000000 0.000000 0.000000 -0.089239 0.645712 6.648295 -5.219505 2.947215 3.026598 -67.105325 3.627857 11.950328 5.701073 -32.161510 10.374432 0.000000 0.000000 0.000000 -4.995143 2.291499 5.936888 29.484574 -0.420878 4.406729 56.183213 -4.785838 13.552554 -6.135706 29.513780 -1.821330 0.000000 0.000000 0.000000 
-55.248356 81.739113 34.318295 179.852063 15.378190 -179.895927 -3.578236 -1.593893 8.784413 2.388318 2.766865 -24.221065 6.269002 0.135767 32.925330 -2.973198 -10.211562 -11.786538 0.000000 0.000000 0.000000 -0.461846 -1.674406 8.039843 1.253358 1.781192 -20.555465 -1.146676 2.668991 30.160019 7.657124 6.428815 -5.188585 0.000000 0.000000 0.000000 1.654960 2.065603 -4.572354 0.617120 -2.290061 -6.048947 -1.706255 -1.542553 8.659890 -0.011820 0.074228 0.003787 -2.219232 0.105093 9.399603 -7.714489 -0.738286 -3.569104 0.000000 0.000000 0.000000 -0.097659 0.626227 6.657285 -5.230619 2.840579 3.038211 -67.054952 3.120695 12.070165 5.625506 -32.481596 10.348213 0.000000 0.000000 0.000000 -4.985187 2.311859 5.876463 29.463022 -0.288757 4.429458 56.205733 -4.751141 13.831498 -6.107018 29.467557 -1.804749 0.000000 0.000000 0.000000 
-55.357624 81.732651 34.318649 179.853716 15.255180 -179.926881 -3.555160 -1.737315 8.794285 2.253905 2.792496 -24.240794 6.316582 0.174699 32.951046 -2.927716 -10.185904 -11.742450 0.000000 0.000000 0.000000 -0.450869 -1.830031 7.986942 1.135730 1.817858 -20.497097 -1.133623 2.682646 30.177770 7.708466 6.485401 -5.223569 0.000000 0.000000 0.000000 1.737124 1.961155 -4.537570 0.611681 -2.207445 -6.079213 -1.696699 -1.502123 8.620220 -0.005360 0.104770 0.053970 -2.224850 0.054331 9.373752 -7.694161 -0.717557 -3.672929 0.000000 0.000000 0.000000 -0.097907 0.648855 6.605503 -5.282236 2.685566 3.023530 -66.833176 2.155637 12.498539 5.498851 -33.091358 10.425950 0.000000 0.000000 0.000000 -4.953218 2.341419 5.857805 29.416679 -0.133337 4.536456 56.275066 -4.726978 14.330398 -6.117379 29.394675 -1.792483 0.000000 0.000000 0.000000 
-55.488865 81.726685 34.319183 179.884534 15.047021 -179.911335 -3.483861 -1.869627 8.844946 2.090128 2.771145 -24.337955 6.324825 0.209572 32.922236 -2.879958 -10.194339 -11.690218 0.000000 0.000000 0.000000 -0.405435 -1.962153 7.969582 1.001125 1.807333 -20.471250 -1.125963 2.658347 30.089107 7.763050 6.534522 -5.277857 0.000000 0.000000 0.000000 1.834831 1.849220 -4.579360 0.626572 -2.162030 -6.122459 -1.672466 -1.502893 8.581962 0.032261 0.113711 0.001859 -2.247643 -0.040288 9.388425 -7.645890 -0.783125 -3.820322 0.000000 0.000000 0.000000 -0.136876 0.557894 6.598259 -5.337097 2.505566 3.085372 -66.589509 1.091947 12.916186 5.367831 -33.926663 10.319856 0.000000 0.000000 0.000000 -5.002941 2.291007 5.875630 29.191429 0.064385 4.626313 56.440834 -4.758967 14.908821 -6.117648 29.347482 -1.865964 0.000000 0.000000 0.000000 
-55.627968 81.725975 34.326992 179.854303 14.722833 -179.879643 -3.435496 -2.046874 8.951140 1.903887 2.649118 -24.495461 6.317311 0.215822 32.846885 -2.822966 -10.200588 -11.603684 0.000000 0.000000 0.000000 -0.366884 -2.207835 7.961667 0.819671 1.750679 -20.552876 -1.115662 2.621744 30.130266 7.821319 6.575878 -5.340841 0.000000 0.000000 0.000000 1.914908 1.803100 -4.592546 0.629085 -2.051623 -6.208402 -1.667461 -1.434848 8.532609 0.009416 0.186687 0.072264 -2.224236 0.036592 9.308902 -7.500921 -0.725713 -3.895263 0.000000 0.000000 0.000000 -0.114496 0.568673 6.567804 -5.451786 2.127970 3.092416 -66.125677 -0.280756 13.442066 5.161366 -35.128906 10.256000 0.000000 0.000000 0.000000 -4.965250 2.140431 5.837197 29.002052 0.267865 4.779069 56.522547 -4.758643 15.453583 -6.074893 29.300320 -1.908247 0.000000 0.000000 0.000000 
-55.775166 81.730629 34.349995 179.844359 14.410000 -179.867117 -3.374967 -2.165507 9.079489 1.716646 2.532028 -24.663741 6.314373 0.224281 32.737001 -2.787152 -10.211828 -11.497820 0.000000 0.000000 0.000000 -0.313313 -2.378765 8.023367 0.638969 1.666604 -20.643441 -1.111571 2.578150 30.125987 7.868762 6.602493 -5.356902 0.000000 0.000000 0.000000 2.012556 1.618130 -4.578410 0.630693 -2.073820 -6.294088 -1.655050 -1.494120 8.471627 0.025322 0.118603 0.004852 -2.221725 0.052149 9.344485 -7.422262 -0.684989 -4.042053 0.000000 0.000000 0.000000 -0.118504 0.616663 6.538918 -5.628352 2.177797 3.152634 -65.769066 -1.330202 13.646195 4.901456 -36.575011 10.299262 0.000000 0.000000 0.000000 -5.013796 2.445398 5.855947 28.839627 0.517067 4.962349 56.554181 -4.841641 15.837995 -6.151936 29.411597 -1.963933 0.000000 0.000000 0.000000 
-55.942009 81.737991 34.397293 179.841026 14.077061 -179.866557 -3.323438 -2.272113 9.175068 1.542724 2.389972 -24.812513 6.308157 0.218927 32.615574 -2.757372 -10.207623 -11.382084 0.000000 0.000000 0.000000 -0.260283 -2.503431 8.087558 0.465579 1.579008 -20.753193 -1.115482 2.544202 30.129494 7.902417 6.612015 -5.333200 0.000000 0.000000 0.000000 2.083329 1.676104 -4.555918 0.613306 -2.001347 -6.366520 -1.663871 -1.438878 8.474077 0.010031 0.170550 0.052613 -2.170513 0.132226 9.231667 -7.246417 -0.756120 -4.142459 0.000000 0.000000 0.000000 -0.097623 0.619181 6.527542 -5.742674 1.846400 3.188195 -65.322939 -2.435089 13.876881 4.606432 -38.182059 10.234636 0.000000 0.000000 0.000000 -4.935555 2.199530 5.770639 28.695718 0.650035 5.092505 56.510171 -4.795810 16.028420 -6.052772 29.515819 -1.909570 0.000000 0.000000 0.000000 
-56.109608 81.743866 34.459175 179.827748 13.777840 -179.897593 -3.275841 -2.312998 9.219741 1.377384 2.253356 -24.899678 6.326246 0.221767 32.485841 -2.762359 -10.199387 -11.254634 0.000000 0.000000 0.000000 -0.209938 -2.608318 8.092797 0.304166 1.519724 -20.876256 -1.124950 2.545019 30.215049 7.920059 6.601619 -5.364352 0.000000 0.000000 0.000000 2.147153 1.607573 -4.510937 0.601666 -1.999372 -6.381217 -1.634965 -1.437920 8.428406 0.055413 0.132779 0.084262 -2.203153 0.046470 9.178046 -7.166040 -0.743063 -4.286864 0.000000 0.000000 0.000000 -0.119158 0.601124 6.408768 -5.885350 1.829211 3.227582 -65.080187 -3.091616 13.946905 4.543569 -39.842980 10.122796 0.000000 0.000000 0.000000 -4.987692 2.306449 5.742353 28.557339 0.740387 5.177528 56.423920 -4.697536 16.129954 -6.052260 29.645108 -1.922535 0.000000 0.000000 0.000000 
-56.288502 81.748444 34.518654 179.834892 13.586317 -179.873168 -3.220752 -2.240964 9.184104 1.239494 2.155372 -24.966532 6.289839 0.255325 32.385820 -2.756350 -10.179459 -11.205339 0.000000 0.000000 0.000000 -0.164764 -2.410556 8.111452 0.165759 1.437091 -20.964038 -1.138647 2.524585 30.239358 7.923898 6.552071 -5.339603 0.000000 0.000000 0.000000 2.173998 1.655130 -4.482960 0.600519 -2.054114 -6.392044 -1.596095 -1.443663 8.408377 -0.019699 0.162760 0.027335 -2.076716 0.008856 9.223365 -7.113817 -0.806335 -4.461658 0.000000 0.000000 0.000000 -0.006330 0.714465 6.392571 -6.003952 1.743378 3.305809 -64.745562 -3.530331 14.223393 4.399325 -41.320001 10.005413 0.000000 0.000000 0.000000 -4.909728 2.400827 5.739936 28.478382 1.063119 5.354207 56.310576 -4.646483 16.144339 -6.018537 29.716080 -1.809745 0.000000 0.000000 0.000000 
